<svg xmlns="http://www.w3.org/2000/svg" version="1.1" xmlns:xlink="http://www.w3.org/1999/xlink" viewBox="0 0 200 200"><rect width="200" height="200" fill="url('#gradient')"></rect><defs><linearGradient id="gradient" gradientTransform="rotate(0 0.5 0.5)"><stop offset="0%" stop-color="#3c6355"></stop><stop offset="100%" stop-color="#393a3f"></stop></linearGradient></defs><g><g fill="#ffffff" transform="matrix(1.3663454410674574,0,0,1.3663454410674574,8.905829353461542,110.11329987414949)" stroke="#959595" stroke-width="0.3"><path d="M12.71-7.60L12.71-1.76Q11.92-0.88 10.40-0.34Q8.88 0.20 7.06 0.20L7.06 0.20Q4.27 0.20 2.60-1.51Q0.93-3.22 0.81-6.27L0.81-6.27L0.80-7.50Q0.80-9.60 1.54-11.17Q2.29-12.73 3.67-13.58Q5.05-14.42 6.87-14.42L6.87-14.42Q9.52-14.42 10.99-13.21Q12.46-11.99 12.71-9.58L12.71-9.58L9.40-9.58Q9.23-10.77 8.64-11.28Q8.06-11.79 6.98-11.79L6.98-11.79Q5.69-11.79 4.99-10.69Q4.29-9.60 4.28-7.57L4.28-7.57L4.28-6.71Q4.28-4.58 5.00-3.51Q5.73-2.44 7.29-2.44L7.29-2.44Q8.63-2.44 9.29-3.04L9.29-3.04L9.29-5.24L6.90-5.24L6.90-7.60L12.71-7.60ZM23.80 0L20.51 0Q20.33-0.32 20.20-0.95L20.20-0.95Q19.29 0.20 17.66 0.20L17.66 0.20Q16.16 0.20 15.12-0.71Q14.07-1.61 14.07-2.98L14.07-2.98Q14.07-4.70 15.34-5.58Q16.61-6.46 19.03-6.46L19.03-6.46L20.05-6.46L20.05-7.01Q20.05-8.47 18.79-8.47L18.79-8.47Q17.62-8.47 17.62-7.31L17.62-7.31L14.33-7.31Q14.33-8.85 15.63-9.80Q16.93-10.76 18.96-10.76Q20.98-10.76 22.15-9.78Q23.32-8.79 23.35-7.07L23.35-7.07L23.35-2.39Q23.37-0.94 23.80-0.17L23.80-0.17L23.80 0ZM18.45-2.15L18.45-2.15Q19.06-2.15 19.47-2.41Q19.87-2.68 20.05-3.01L20.05-3.01L20.05-4.70L19.09-4.70Q17.37-4.70 17.37-3.15L17.37-3.15Q17.37-2.71 17.68-2.43Q17.98-2.15 18.45-2.15ZM25.20-10.57L28.28-10.57L28.39-9.33Q29.51-10.76 31.41-10.76L31.41-10.76Q33.41-10.76 34.11-9.17L34.11-9.17Q35.19-10.76 37.22-10.76L37.22-10.76Q40.43-10.76 40.52-6.88L40.52-6.88L40.52 0L37.22 0L37.22-6.67Q37.22-7.48 36.94-7.85Q36.67-8.22 35.95-8.22L35.95-8.22Q34.97-8.22 34.49-7.35L34.49-7.35L34.50-7.22L34.50 0L31.20 0L31.20-6.65Q31.20-7.48 30.94-7.85Q30.67-8.22 29.93-8.22L29.93-8.22Q28.98-8.22 28.49-7.35L28.49-7.35L28.49 0L25.20 0L25.20-10.57ZM47.51 0.20L47.51 0.20Q45.08 0.20 43.57-1.25Q42.07-2.71 42.07-5.03L42.07-5.03L42.07-5.30Q42.07-6.92 42.67-8.16Q43.27-9.40 44.42-10.08Q45.58-10.76 47.16-10.76L47.16-10.76Q49.38-10.76 50.67-9.38Q51.96-8.00 51.96-5.53L51.96-5.53L51.96-4.25L45.42-4.25Q45.60-3.36 46.19-2.85Q46.79-2.34 47.73-2.34L47.73-2.34Q49.30-2.34 50.18-3.44L50.18-3.44L51.68-1.66Q51.06-0.81 49.94-0.31Q48.81 0.20 47.51 0.20ZM47.14-8.22L47.14-8.22Q45.69-8.22 45.42-6.31L45.42-6.31L48.74-6.31L48.74-6.56Q48.76-7.35 48.34-7.79Q47.92-8.22 47.14-8.22ZM59.74-10.64L59.68-7.59L58.59-7.67Q57.04-7.67 56.60-6.69L56.60-6.69L56.60 0L53.31 0L53.31-10.57L56.40-10.57L56.50-9.21Q57.33-10.76 58.82-10.76L58.82-10.76Q59.35-10.76 59.74-10.64L59.74-10.64ZM71.66-4.46L71.66-14.22L75.08-14.22L75.08-4.46Q75.08-3.11 74.45-2.04Q73.82-0.98 72.69-0.39Q71.56 0.20 70.18 0.20L70.18 0.20Q67.85 0.20 66.56-0.98Q65.27-2.15 65.27-4.30L65.27-4.30L68.71-4.30Q68.71-3.32 69.05-2.88Q69.38-2.44 70.18-2.44L70.18-2.44Q70.89-2.44 71.27-2.97Q71.66-3.51 71.66-4.46L71.66-4.46ZM76.68-4.82L76.67-5.38Q76.67-6.96 77.29-8.20Q77.90-9.43 79.05-10.10Q80.21-10.76 81.76-10.76L81.76-10.76Q84.13-10.76 85.50-9.29Q86.87-7.82 86.87-5.29L86.87-5.29L86.87-5.18Q86.87-2.71 85.49-1.25Q84.12 0.20 81.78 0.20L81.78 0.20Q79.52 0.20 78.15-1.16Q76.79-2.51 76.68-4.82L76.68-4.82ZM79.97-5.77L79.96-5.18Q79.96-3.71 80.42-3.03Q80.88-2.34 81.78-2.34L81.78-2.34Q83.54-2.34 83.57-5.05L83.57-5.05L83.57-5.38Q83.57-8.22 81.76-8.22L81.76-8.22Q80.11-8.22 79.97-5.77L79.97-5.77ZM94.71 0L94.61-1.14Q93.56 0.20 91.79 0.20L91.79 0.20Q90.05 0.20 89.16-0.82Q88.26-1.83 88.26-3.72L88.26-3.72L88.26-10.57L91.55-10.57L91.55-3.70Q91.55-2.34 92.87-2.34L92.87-2.34Q94.00-2.34 94.48-3.15L94.48-3.15L94.48-10.57L97.79-10.57L97.79 0L94.71 0ZM106.04-10.64L105.99-7.59L104.90-7.67Q103.35-7.67 102.91-6.69L102.91-6.69L102.91 0L99.62 0L99.62-10.57L102.71-10.57L102.81-9.21Q103.64-10.76 105.13-10.76L105.13-10.76Q105.65-10.76 106.04-10.64L106.04-10.64ZM107.11-10.57L110.20-10.57L110.30-9.33Q111.40-10.76 113.32-10.76L113.32-10.76Q114.97-10.76 115.79-9.78Q116.60-8.79 116.63-6.81L116.63-6.81L116.63 0L113.33 0L113.33-6.67Q113.33-7.47 113.01-7.85Q112.69-8.22 111.84-8.22L111.84-8.22Q110.87-8.22 110.40-7.46L110.40-7.46L110.40 0L107.11 0L107.11-10.57ZM127.70 0L124.40 0Q124.23-0.32 124.09-0.95L124.09-0.95Q123.18 0.20 121.55 0.20L121.55 0.20Q120.06 0.20 119.01-0.71Q117.97-1.61 117.97-2.98L117.97-2.98Q117.97-4.70 119.24-5.58Q120.51-6.46 122.93-6.46L122.93-6.46L123.95-6.46L123.95-7.01Q123.95-8.47 122.69-8.47L122.69-8.47Q121.51-8.47 121.51-7.31L121.51-7.31L118.22-7.31Q118.22-8.85 119.53-9.80Q120.83-10.76 122.85-10.76Q124.87-10.76 126.04-9.78Q127.22-8.79 127.25-7.07L127.25-7.07L127.25-2.39Q127.27-0.94 127.70-0.17L127.70-0.17L127.70 0ZM122.34-2.15L122.34-2.15Q122.96-2.15 123.36-2.41Q123.77-2.68 123.95-3.01L123.95-3.01L123.95-4.70L122.99-4.70Q121.27-4.70 121.27-3.15L121.27-3.15Q121.27-2.71 121.57-2.43Q121.88-2.15 122.34-2.15ZM132.54-15L132.54 0L129.24 0L129.24-15L132.54-15Z"></path></g></g></svg>