<?xml version="1.0" encoding="utf-8"?>
<!-- Generator: Adobe Illustrator 21.1.0, SVG Export Plug-In . SVG Version: 6.00 Build 0)  -->
<svg version="1.1" id="Layer_1" xmlns="http://www.w3.org/2000/svg" xmlns:xlink="http://www.w3.org/1999/xlink" x="0px" y="0px"
	 viewBox="0 0 64 64" style="enable-background:new 0 0 64 64;" xml:space="preserve">
<style type="text/css">
	.st0{fill:#597380;}
	.st1{fill:#FFB4A2;}
	.st2{fill:#FFD2B2;}
	.st3{fill-rule:evenodd;clip-rule:evenodd;fill:#FFFFFF;}
	.st4{fill:#314A52;}
</style>
<g id="Rich-Uncle">
	<path class="st0" d="M30.5,0L60,12.5l-6.6,15.7c2.7,0.7,4.6,3.2,4.6,6.3c0,3.6-2.7,6.5-6,6.5c-3.3,0-6-2.9-6-6.5c0-2.7,1.5-5,3.6-6
		l-29.4-4.2L30.5,0z"/>
	<path class="st1" d="M52,42c0,12.2-9.8,22-22,22C17.8,64,8,54.2,8,42c0-8.5,4.9-16,12-19.6C21.5,24,26.4,26,30,26
		c6.4,0,12.5,0.5,16.1,1C49.8,30.9,52,36.2,52,42z"/>
	<path class="st2" d="M12,42c0,9.9,8.1,12,18,12c9.9,0,18-2.1,18-12c0-9.9-8.1-18-18-18C20.1,24,12,32.1,12,42z"/>
	<path class="st3" d="M20.4,48.5c-1.9-0.8-3.6-1.1-5.1-0.8c-1.5,0.3-2.6,1.1-3.4,1.7l-0.1,0.1c-0.9,0.6-1.5,1.1-2.5,1.3
		c-0.9,0.2-2.2,0.3-4.4-0.2l-1,3.9c4,1.1,6.2,1.6,9.5,1.6c2,0,4-0.7,5.4-1.5c0.5-0.3,1.1-0.7,1.5-1.1c0.3,0.4,0.6,0.7,0.9,1.1
		c1.2,1.2,2.9,2.4,4.9,2.9c2.6,0.7,4.8,0.7,7.5,0.6c0.7,0,1.4,0,2.2,0l0-4c-2.2,0-3.5-0.4-4.3-0.9c-0.8-0.5-1.4-1-2.1-1.8l-0.1-0.1
		c-0.6-0.7-1.5-1.7-2.9-2.4c-1.5-0.7-3.2-0.8-5.5-0.4L20.4,48.5z"/>
	<path class="st4" d="M50,25.9l6.3-15l3.7,1.6l-6.3,14.9c0.1,0.1,0.3,0.1,0.4,0.2c2.1,1.1,3.6,2.4,4.6,3.9c1,1.5,1.3,3.1,1.3,4.5
		c0,2.7-1.4,4.8-3,6.1c-1.5,1.2-3.5,1.9-5,1.9h-0.1c0.1-1.3,0.1-2.7,0-4H52c0.5,0,1.5-0.3,2.5-1.1c0.9-0.7,1.5-1.7,1.5-2.9
		c0-0.8-0.2-1.6-0.7-2.4c-0.5-0.8-1.4-1.7-3-2.5C49,29.4,42.9,28,32,28c-7.2,0-12.2-2.3-15.5-5.5C13.3,19.3,12,15.3,12,12h4
		c0,2.2,0.9,5.2,3.4,7.6C21.7,22,25.7,24,32,24C40,24,45.8,24.7,50,25.9z M18,40c1.1,0,2-0.9,2-2c0-1.1-0.9-2-2-2c-1.1,0-2,0.9-2,2
		C16,39.1,16.9,40,18,40z M34,44c1.1,0,2-0.9,2-2c0-1.1-0.9-2-2-2c-1.1,0-2,0.9-2,2C32,43.1,32.9,44,34,44z"/>
</g>
</svg>
